<?xml version="1.0" standalone="no"?>
<!DOCTYPE svg PUBLIC "-//W3C//DTD SVG 20010904//EN"
 "http://www.w3.org/TR/2001/REC-SVG-20010904/DTD/svg10.dtd">
<svg version="1.0" xmlns="http://www.w3.org/2000/svg"
 width="788.000000pt" height="788.000000pt" viewBox="0 0 788.000000 788.000000"
 preserveAspectRatio="xMidYMid meet">
<metadata>
Created by potrace 1.14, written by Peter Selinger 2001-2017
</metadata>
<g transform="translate(0.000000,788.000000) scale(0.100000,-0.100000)"
fill="#000000" stroke="none">
<path d="M829 7673 c-1 -13 -5 -30 -48 -203 -60 -243 -65 -288 -49 -415 4 -39
10 -85 12 -102 6 -57 -52 -83 -123 -53 -43 18 -59 8 -65 -42 -3 -24 -8 -63
-12 -88 -11 -82 -14 -134 -14 -255 -1 -203 26 -292 129 -424 36 -47 71 -94 78
-105 16 -27 16 -83 1 -92 -15 -10 -82 -6 -131 7 -29 8 -42 8 -47 -1 -16 -25
40 -207 106 -346 41 -88 153 -277 166 -282 4 -2 8 -8 8 -14 0 -11 86 -123 130
-169 77 -81 119 -129 112 -129 -4 0 0 -5 8 -10 13 -8 12 -10 -3 -10 -11 0 -31
8 -45 18 -30 20 -86 42 -174 66 -31 9 -109 41 -174 71 -109 52 -228 94 -334
117 -95 21 -116 26 -162 41 l-48 15 0 -27 c0 -24 4 -51 24 -156 2 -11 7 -40
11 -65 4 -25 9 -54 11 -65 2 -11 8 -45 14 -75 6 -30 12 -66 15 -80 28 -150 72
-242 160 -335 36 -38 73 -82 81 -97 13 -25 13 -29 -6 -48 -11 -11 -41 -25 -66
-31 l-46 -12 5 -77 c6 -105 44 -180 142 -290 102 -113 120 -156 64 -154 -55 2
-151 -20 -162 -37 -16 -25 31 -161 108 -314 44 -86 67 -127 76 -135 3 -3 15
-22 28 -43 13 -21 28 -43 34 -50 7 -7 23 -28 37 -47 52 -74 261 -289 338 -348
l33 -26 -23 -12 c-21 -12 -114 -31 -130 -26 -4 1 -40 4 -80 8 -40 3 -81 8 -91
11 -19 5 -3 -29 97 -207 20 -36 42 -77 47 -92 6 -16 15 -28 20 -28 5 0 9 -5 9
-10 0 -18 100 -171 189 -290 47 -63 92 -126 100 -139 11 -21 14 -161 15 -806
1 -730 2 -783 19 -808 9 -15 23 -27 30 -28 6 0 21 -2 32 -5 11 -2 81 -3 155
-3 74 0 146 0 160 -1 14 -1 32 -2 40 -1 8 0 310 0 670 0 360 0 661 0 668 0 23
2 47 2 107 1 33 0 145 1 248 2 l189 3 25 29 25 30 -5 295 c-3 163 -7 307 -10
321 -3 14 -8 43 -12 65 -21 140 -78 307 -128 370 -4 5 -18 24 -30 41 -54 75
-138 154 -243 227 -44 30 -128 78 -144 82 -3 1 -27 12 -55 24 -27 13 -72 32
-100 43 -100 39 -124 51 -127 67 -6 26 -2 1540 3 1546 3 3 252 6 552 8 l547 2
14 -45 c8 -25 28 -90 45 -144 17 -54 33 -108 36 -120 25 -122 145 -436 165
-436 5 0 11 -10 14 -22 3 -13 15 -34 26 -48 11 -14 44 -56 73 -93 l54 -69 1
-941 c1 -518 2 -999 2 -1069 l0 -127 30 -21 c31 -22 37 -23 280 -19 8 0 92 0
185 0 94 0 179 -1 190 -1 11 0 40 1 65 1 25 0 51 0 58 0 17 0 179 0 195 0 6 0
28 0 47 -1 19 -1 133 0 252 2 286 4 262 -19 266 255 3 175 1 205 -11 200 -24
-9 -41 10 -43 50 -3 69 -16 167 -31 238 -8 39 -17 81 -19 95 -8 41 -55 173
-70 197 -8 12 -14 27 -14 34 0 6 -13 31 -30 56 -16 24 -30 47 -30 51 0 4 -25
40 -55 81 -30 41 -52 78 -49 83 9 13 59 0 142 -38 117 -53 207 -77 298 -78 90
0 123 13 148 62 14 26 13 33 -10 81 -13 29 -24 57 -24 61 0 20 45 15 112 -15
82 -35 114 -45 173 -52 102 -12 194 -8 275 12 14 3 32 8 40 10 8 2 15 4 15 5
0 1 9 3 20 5 35 7 149 58 201 91 62 39 120 97 145 146 18 35 18 36 -2 62 -11
14 -40 34 -65 45 -71 32 -56 49 56 64 19 3 57 8 85 12 146 21 318 105 479 235
56 45 301 306 301 321 0 4 -34 32 -75 63 -41 30 -79 59 -85 63 -5 5 -38 30
-73 57 -35 26 -75 59 -89 72 -14 13 -29 24 -32 24 -3 0 -24 16 -46 35 -109 96
-284 193 -400 222 -90 22 -203 28 -252 14 -18 -5 -33 -6 -33 -3 0 4 32 32 71
62 39 30 76 60 83 65 6 6 45 37 86 70 188 149 365 367 451 555 28 61 68 202
78 273 11 82 2 86 -101 49 -46 -16 -95 -31 -108 -33 -35 -4 -70 10 -70 27 0
17 38 77 75 119 15 17 39 46 54 65 14 19 29 37 32 40 17 13 70 126 97 206 28
80 59 226 77 359 9 59 15 503 8 521 -6 15 -23 9 -86 -29 -73 -44 -156 -74
-229 -81 -22 -2 -29 3 -37 27 -11 31 -3 54 45 127 13 19 28 58 34 85 31 139 1
435 -70 681 -40 136 -61 237 -76 359 -4 33 -8 69 -10 80 -1 11 -3 26 -3 33 -1
19 -15 15 -46 -13 -150 -140 -423 -315 -491 -315 -15 0 -27 11 -39 36 -28 59
-123 193 -204 289 -43 50 -117 142 -165 205 -48 63 -94 123 -102 133 -8 9 -14
20 -14 23 0 3 -10 20 -22 37 -30 41 -44 65 -63 105 -8 17 -19 32 -24 32 -5 0
-14 -15 -21 -32 -7 -18 -19 -46 -25 -63 -7 -16 -26 -63 -41 -102 -43 -107 -45
-110 -85 -81 -68 48 -73 64 -39 142 10 25 16 46 13 46 -4 0 -2 5 5 12 17 17
15 100 -4 126 -9 13 -28 28 -42 33 -16 6 -327 10 -824 9 -884 0 -849 3 -866
-63 -18 -64 0 -270 34 -397 8 -30 17 -64 19 -75 6 -28 56 -147 69 -165 6 -8
20 -31 31 -50 10 -19 24 -40 29 -46 6 -6 18 -22 26 -34 8 -12 23 -33 33 -46
53 -69 38 -128 -42 -163 -27 -11 -54 -21 -60 -21 -6 0 -11 -5 -11 -12 0 -6 -3
-9 -6 -5 -3 3 -22 0 -42 -7 -50 -17 -533 -12 -733 8 -65 6 -254 53 -289 71
-41 21 -63 20 -55 -4 3 -11 8 -29 10 -42 2 -12 9 -36 15 -54 10 -30 14 -48 26
-104 3 -14 18 -70 34 -125 15 -56 42 -153 59 -216 114 -427 249 -721 418 -907
46 -51 181 -163 220 -183 15 -8 30 -18 33 -21 3 -3 67 -37 142 -75 76 -38 138
-72 138 -75 0 -7 -48 -4 -120 5 -42 6 -187 43 -200 51 -21 13 -8 -21 28 -74
20 -31 39 -58 42 -61 3 -3 25 -34 49 -70 25 -36 48 -66 53 -68 4 -2 8 -10 8
-17 0 -8 6 -18 13 -22 7 -4 17 -19 23 -33 l11 -25 -71 2 c-39 2 -344 3 -678 4
-449 1 -608 4 -610 12 -2 7 -4 698 -3 1536 1 1431 0 1525 -16 1545 -17 21 -22
21 -331 21 -268 0 -323 -3 -384 -18 -107 -27 -243 -108 -336 -199 -14 -14 -20
-15 -30 -5 -88 84 -307 204 -533 292 -66 25 -147 57 -180 71 -64 26 -75 28
-76 17z"/>
</g>
</svg>
